# xmcd
#
# Track frame offsets: 
#        150
#        12357
#        25295
#        37492
#        48860
#        65512
#        75367
#        91937
#        104862
#        117182
#        131537
#        144420
#        156160
#        166827
#
# Disc length: 2385 seconds
#
# Revision: 2
# Processed by: cddbd v1.5.2PL0 Copyright (c) Steve Scherf et al.
# Submitted via: ExactAudioCopy v0.95b4
#
DISCID=b7094f0e
DTITLE=Merle Haggard - Hits
DYEAR=1900
DGENRE=
TTITLE0=I Take a Lot of Pride in What I Am
TTITLE1=The Fightin' Side of Me
TTITLE2=Okie From Muskigee
TTITLE3=(From Now On My Friends Are Gonna Be) Stangers
TTITLE4=I Think I'll Just Stay Here And Drink
TTITLE5=Mama Tried
TTITLE6=Daddy Frank (The Guitar Man)
TTITLE7=Sing Me Back Home
TTITLE8=The Bottle Let Me Down
TTITLE9=Branded Man
TTITLE10=Swinging Doors
TTITLE11=Carolyn
TTITLE12=Someday We'll Look Back
TTITLE13=Workin' Man Blues
EXTD=
EXTT0=
EXTT1=
EXTT2=
EXTT3=
EXTT4=
EXTT5=
EXTT6=
EXTT7=
EXTT8=
EXTT9=
EXTT10=
EXTT11=
EXTT12=
EXTT13=
PLAYORDER=
